<?xml version="1.0" standalone="no"?>
<!DOCTYPE svg PUBLIC "-//W3C//DTD SVG 20010904//EN"
 "http://www.w3.org/TR/2001/REC-SVG-20010904/DTD/svg10.dtd">
<svg version="1.0" xmlns="http://www.w3.org/2000/svg"
 width="1536.000000pt" height="660.000000pt" viewBox="0 0 1536.000000 660.000000"
 preserveAspectRatio="xMidYMid meet">
<metadata>
Created by potrace 1.16, written by Peter Selinger 2001-2019
</metadata>
<g transform="translate(0.000000,660.000000) scale(0.042667,-0.051724)"
fill="#000000" stroke="none">
<path d="M2 7748 l3 -5013 280 -42 c154 -24 442 -67 640 -97 534 -82 2455
-373 2640 -401 88 -13 414 -63 725 -110 311 -47 637 -97 725 -110 88 -13 414
-63 725 -110 311 -47 637 -97 725 -110 88 -13 592 -90 1120 -170 528 -80 1032
-157 1120 -170 88 -13 414 -63 725 -110 311 -47 637 -97 725 -110 88 -13 918
-139 1845 -280 927 -141 1757 -267 1845 -280 88 -13 414 -63 725 -110 311 -47
637 -97 725 -110 88 -13 414 -63 725 -110 311 -47 639 -97 729 -111 90 -13
275 -42 410 -64 135 -22 378 -61 539 -87 l294 -47 546 88 c301 48 4352 665
9002 1370 l8455 1281 3 5013 2 5012 -18000 0 -18000 0 2 -5012z"/>
</g>
</svg>
